<mxfile host="app.diagrams.net" agent="Mozilla/5.0 (Windows NT 10.0; Win64; x64) AppleWebKit/537.36 (KHTML, like Gecko) Chrome/128.0.0.0 Safari/537.36 Edg/128.0.0.0" version="24.7.14">
  <diagram name="Page-1" id="CsbMUX92o969FBu23m6x">
    <mxGraphModel dx="528" dy="312" grid="1" gridSize="10" guides="1" tooltips="1" connect="1" arrows="1" fold="1" page="1" pageScale="1" pageWidth="850" pageHeight="1100" math="0" shadow="0">
      <root>
        <mxCell id="0" />
        <mxCell id="1" parent="0" />
        <mxCell id="YSgQy_tYBf9nfDvOi7hA-10" value="" style="rounded=0;whiteSpace=wrap;html=1;" vertex="1" parent="1">
          <mxGeometry x="180" y="10" width="260" height="160" as="geometry" />
        </mxCell>
        <mxCell id="YSgQy_tYBf9nfDvOi7hA-1" value="Student" style="shape=umlActor;verticalLabelPosition=bottom;verticalAlign=top;html=1;" vertex="1" parent="1">
          <mxGeometry x="80" y="275" width="20" height="40" as="geometry" />
        </mxCell>
        <mxCell id="YSgQy_tYBf9nfDvOi7hA-2" value="Teacher" style="shape=umlActor;verticalLabelPosition=bottom;verticalAlign=top;html=1;" vertex="1" parent="1">
          <mxGeometry x="80" y="490" width="20" height="40" as="geometry" />
        </mxCell>
        <mxCell id="YSgQy_tYBf9nfDvOi7hA-3" value="Guest&lt;div&gt;&lt;br&gt;&lt;/div&gt;" style="shape=umlActor;verticalLabelPosition=bottom;verticalAlign=top;html=1;" vertex="1" parent="1">
          <mxGeometry x="130" y="60" width="30" height="60" as="geometry" />
        </mxCell>
        <mxCell id="YSgQy_tYBf9nfDvOi7hA-32" style="edgeStyle=none;shape=connector;rounded=0;jumpSize=31;orthogonalLoop=1;jettySize=auto;html=1;exitX=1;exitY=0.5;exitDx=0;exitDy=0;entryX=0;entryY=0.5;entryDx=0;entryDy=0;strokeColor=default;align=center;verticalAlign=middle;fontFamily=Helvetica;fontSize=11;fontColor=default;labelBackgroundColor=default;endArrow=classic;" edge="1" parent="1" source="YSgQy_tYBf9nfDvOi7hA-6" target="YSgQy_tYBf9nfDvOi7hA-8">
          <mxGeometry relative="1" as="geometry" />
        </mxCell>
        <mxCell id="YSgQy_tYBf9nfDvOi7hA-6" value="&lt;p style=&quot;line-height: 50%;&quot;&gt;&lt;font style=&quot;font-size: 6px;&quot;&gt;browse subject, blogs&lt;/font&gt;&lt;/p&gt;" style="ellipse;whiteSpace=wrap;html=1;align=center;" vertex="1" parent="1">
          <mxGeometry x="300" y="110" width="50" height="30" as="geometry" />
        </mxCell>
        <mxCell id="YSgQy_tYBf9nfDvOi7hA-7" value="&lt;p style=&quot;line-height: 50%;&quot;&gt;&lt;font style=&quot;font-size: 6px;&quot;&gt;Register user account&lt;/font&gt;&lt;/p&gt;" style="ellipse;whiteSpace=wrap;html=1;" vertex="1" parent="1">
          <mxGeometry x="230" y="40" width="50" height="30" as="geometry" />
        </mxCell>
        <mxCell id="YSgQy_tYBf9nfDvOi7hA-8" value="&lt;p style=&quot;line-height: 50%;&quot;&gt;&lt;span data-lucid-content=&quot;{&amp;quot;t&amp;quot;:&amp;quot;View subject details, blogs&amp;quot;,&amp;quot;m&amp;quot;:[{&amp;quot;s&amp;quot;:0,&amp;quot;n&amp;quot;:&amp;quot;a&amp;quot;,&amp;quot;v&amp;quot;:&amp;quot;center&amp;quot;},{&amp;quot;s&amp;quot;:0,&amp;quot;n&amp;quot;:&amp;quot;fsp&amp;quot;,&amp;quot;v&amp;quot;:&amp;quot;ss_presetShapeStyle1_textStyle&amp;quot;,&amp;quot;e&amp;quot;:27},{&amp;quot;s&amp;quot;:0,&amp;quot;n&amp;quot;:&amp;quot;fsp2&amp;quot;,&amp;quot;v&amp;quot;:&amp;quot;ss_presetShapeStyle1_textStyle&amp;quot;,&amp;quot;e&amp;quot;:27},{&amp;quot;s&amp;quot;:0,&amp;quot;n&amp;quot;:&amp;quot;s&amp;quot;,&amp;quot;v&amp;quot;:22.44444444444444,&amp;quot;e&amp;quot;:27}]}&quot; data-lucid-type=&quot;application/vnd.lucid.text&quot;&gt;&lt;font style=&quot;font-size: 6px;&quot;&gt;View subject details, blogs&lt;/font&gt;&lt;/span&gt;&lt;/p&gt;" style="ellipse;whiteSpace=wrap;html=1;" vertex="1" parent="1">
          <mxGeometry x="385" y="110" width="50" height="30" as="geometry" />
        </mxCell>
        <mxCell id="YSgQy_tYBf9nfDvOi7hA-9" value="&lt;p style=&quot;line-height: 50%;&quot;&gt;&lt;span style=&quot;&quot; data-lucid-content=&quot;{&amp;quot;t&amp;quot;:&amp;quot;View Home Page&amp;quot;,&amp;quot;m&amp;quot;:[{&amp;quot;s&amp;quot;:0,&amp;quot;n&amp;quot;:&amp;quot;a&amp;quot;,&amp;quot;v&amp;quot;:&amp;quot;center&amp;quot;},{&amp;quot;s&amp;quot;:0,&amp;quot;n&amp;quot;:&amp;quot;s&amp;quot;,&amp;quot;v&amp;quot;:22.44444444444444,&amp;quot;e&amp;quot;:14},{&amp;quot;s&amp;quot;:0,&amp;quot;n&amp;quot;:&amp;quot;fsp&amp;quot;,&amp;quot;v&amp;quot;:&amp;quot;ss_presetShapeStyle1_textStyle&amp;quot;,&amp;quot;e&amp;quot;:14},{&amp;quot;s&amp;quot;:0,&amp;quot;n&amp;quot;:&amp;quot;fsp2&amp;quot;,&amp;quot;v&amp;quot;:&amp;quot;ss_presetShapeStyle1_textStyle&amp;quot;,&amp;quot;e&amp;quot;:14}]}&quot; data-lucid-type=&quot;application/vnd.lucid.text&quot;&gt;&lt;font style=&quot;font-size: 6px;&quot; color=&quot;#040405&quot;&gt;View Home Page&lt;/font&gt;&lt;/span&gt;&lt;/p&gt;" style="ellipse;whiteSpace=wrap;html=1;" vertex="1" parent="1">
          <mxGeometry x="220" y="110" width="50" height="30" as="geometry" />
        </mxCell>
        <mxCell id="YSgQy_tYBf9nfDvOi7hA-12" value="" style="endArrow=classic;html=1;rounded=0;jumpSize=31;entryX=0.067;entryY=0.878;entryDx=0;entryDy=0;entryPerimeter=0;" edge="1" parent="1" target="YSgQy_tYBf9nfDvOi7hA-7">
          <mxGeometry width="50" height="50" relative="1" as="geometry">
            <mxPoint x="170" y="90" as="sourcePoint" />
            <mxPoint x="230" y="70" as="targetPoint" />
          </mxGeometry>
        </mxCell>
        <mxCell id="YSgQy_tYBf9nfDvOi7hA-15" value="" style="endArrow=classic;html=1;rounded=0;jumpSize=31;entryX=0.093;entryY=0.178;entryDx=0;entryDy=0;entryPerimeter=0;" edge="1" parent="1" target="YSgQy_tYBf9nfDvOi7hA-9">
          <mxGeometry width="50" height="50" relative="1" as="geometry">
            <mxPoint x="170" y="90" as="sourcePoint" />
            <mxPoint x="220" y="140" as="targetPoint" />
          </mxGeometry>
        </mxCell>
        <mxCell id="YSgQy_tYBf9nfDvOi7hA-21" value="" style="endArrow=none;dashed=1;html=1;rounded=0;strokeColor=default;align=center;verticalAlign=middle;fontFamily=Helvetica;fontSize=11;fontColor=default;labelBackgroundColor=default;jumpSize=31;exitX=1;exitY=0.5;exitDx=0;exitDy=0;entryX=0;entryY=0.5;entryDx=0;entryDy=0;" edge="1" parent="1" source="YSgQy_tYBf9nfDvOi7hA-7" target="YSgQy_tYBf9nfDvOi7hA-22">
          <mxGeometry width="50" height="50" relative="1" as="geometry">
            <mxPoint x="280" y="75" as="sourcePoint" />
            <mxPoint x="320" y="35" as="targetPoint" />
          </mxGeometry>
        </mxCell>
        <mxCell id="YSgQy_tYBf9nfDvOi7hA-23" value="&lt;font style=&quot;font-size: 5px;&quot;&gt;Extend&lt;/font&gt;" style="edgeLabel;html=1;align=center;verticalAlign=middle;resizable=0;points=[];fontFamily=Helvetica;fontSize=11;fontColor=default;labelBackgroundColor=none;" vertex="1" connectable="0" parent="YSgQy_tYBf9nfDvOi7hA-21">
          <mxGeometry y="2" relative="1" as="geometry">
            <mxPoint as="offset" />
          </mxGeometry>
        </mxCell>
        <mxCell id="YSgQy_tYBf9nfDvOi7hA-22" value="&lt;p style=&quot;line-height: 50%;&quot;&gt;&lt;span data-lucid-content=&quot;{&amp;quot;t&amp;quot;:&amp;quot;View subject details, blogs&amp;quot;,&amp;quot;m&amp;quot;:[{&amp;quot;s&amp;quot;:0,&amp;quot;n&amp;quot;:&amp;quot;a&amp;quot;,&amp;quot;v&amp;quot;:&amp;quot;center&amp;quot;},{&amp;quot;s&amp;quot;:0,&amp;quot;n&amp;quot;:&amp;quot;fsp&amp;quot;,&amp;quot;v&amp;quot;:&amp;quot;ss_presetShapeStyle1_textStyle&amp;quot;,&amp;quot;e&amp;quot;:27},{&amp;quot;s&amp;quot;:0,&amp;quot;n&amp;quot;:&amp;quot;fsp2&amp;quot;,&amp;quot;v&amp;quot;:&amp;quot;ss_presetShapeStyle1_textStyle&amp;quot;,&amp;quot;e&amp;quot;:27},{&amp;quot;s&amp;quot;:0,&amp;quot;n&amp;quot;:&amp;quot;s&amp;quot;,&amp;quot;v&amp;quot;:22.44444444444444,&amp;quot;e&amp;quot;:27}]}&quot; data-lucid-type=&quot;application/vnd.lucid.text&quot;&gt;&lt;font style=&quot;font-size: 6px;&quot;&gt;Validate OTP&lt;/font&gt;&lt;/span&gt;&lt;/p&gt;" style="ellipse;whiteSpace=wrap;html=1;" vertex="1" parent="1">
          <mxGeometry x="350" y="40" width="50" height="30" as="geometry" />
        </mxCell>
        <mxCell id="YSgQy_tYBf9nfDvOi7hA-26" value="" style="endArrow=none;dashed=1;html=1;rounded=0;strokeColor=default;align=center;verticalAlign=middle;fontFamily=Helvetica;fontSize=11;fontColor=default;labelBackgroundColor=default;jumpSize=31;exitX=1;exitY=0.5;exitDx=0;exitDy=0;entryX=0;entryY=0.5;entryDx=0;entryDy=0;" edge="1" parent="1" source="YSgQy_tYBf9nfDvOi7hA-9" target="YSgQy_tYBf9nfDvOi7hA-6">
          <mxGeometry width="50" height="50" relative="1" as="geometry">
            <mxPoint x="353" y="124" as="sourcePoint" />
            <mxPoint x="350" y="77" as="targetPoint" />
          </mxGeometry>
        </mxCell>
        <mxCell id="YSgQy_tYBf9nfDvOi7hA-27" value="&lt;font style=&quot;font-size: 5px;&quot;&gt;Extend&lt;/font&gt;" style="edgeLabel;html=1;align=center;verticalAlign=middle;resizable=0;points=[];fontFamily=Helvetica;fontSize=11;fontColor=default;labelBackgroundColor=none;rotation=0;" vertex="1" connectable="0" parent="YSgQy_tYBf9nfDvOi7hA-26">
          <mxGeometry y="2" relative="1" as="geometry">
            <mxPoint as="offset" />
          </mxGeometry>
        </mxCell>
        <mxCell id="YSgQy_tYBf9nfDvOi7hA-31" value="" style="endArrow=classic;html=1;rounded=0;jumpSize=31;entryX=0.5;entryY=0;entryDx=0;entryDy=0;exitX=1;exitY=1;exitDx=0;exitDy=0;" edge="1" parent="1" source="YSgQy_tYBf9nfDvOi7hA-7" target="YSgQy_tYBf9nfDvOi7hA-6">
          <mxGeometry width="50" height="50" relative="1" as="geometry">
            <mxPoint x="190" y="110" as="sourcePoint" />
            <mxPoint x="243" y="76" as="targetPoint" />
          </mxGeometry>
        </mxCell>
        <mxCell id="YSgQy_tYBf9nfDvOi7hA-33" value="" style="rounded=0;whiteSpace=wrap;html=1;fontFamily=Helvetica;fontSize=11;fontColor=default;labelBackgroundColor=default;movable=1;resizable=1;rotatable=1;deletable=1;editable=1;locked=0;connectable=1;" vertex="1" parent="1">
          <mxGeometry x="150" y="190" width="280" height="160" as="geometry" />
        </mxCell>
        <mxCell id="YSgQy_tYBf9nfDvOi7hA-36" value="Guest&lt;div&gt;&lt;br&gt;&lt;/div&gt;" style="shape=umlActor;verticalLabelPosition=bottom;verticalAlign=top;html=1;" vertex="1" parent="1">
          <mxGeometry x="120" y="215" width="20" height="40" as="geometry" />
        </mxCell>
        <mxCell id="YSgQy_tYBf9nfDvOi7hA-42" value="" style="endArrow=classic;html=1;rounded=0;strokeColor=default;align=center;verticalAlign=middle;fontFamily=Helvetica;fontSize=11;fontColor=default;labelBackgroundColor=default;jumpSize=31;entryX=-0.048;entryY=0.54;entryDx=0;entryDy=0;entryPerimeter=0;" edge="1" parent="1" source="YSgQy_tYBf9nfDvOi7hA-1" target="YSgQy_tYBf9nfDvOi7hA-50">
          <mxGeometry width="50" height="50" relative="1" as="geometry">
            <mxPoint x="200" y="290" as="sourcePoint" />
            <mxPoint x="180" y="280" as="targetPoint" />
          </mxGeometry>
        </mxCell>
        <mxCell id="YSgQy_tYBf9nfDvOi7hA-63" style="edgeStyle=none;shape=connector;rounded=0;jumpSize=31;orthogonalLoop=1;jettySize=auto;html=1;entryX=0;entryY=0.5;entryDx=0;entryDy=0;strokeColor=default;align=center;verticalAlign=middle;fontFamily=Helvetica;fontSize=11;fontColor=default;labelBackgroundColor=default;endArrow=classic;" edge="1" parent="1" source="YSgQy_tYBf9nfDvOi7hA-43" target="YSgQy_tYBf9nfDvOi7hA-47">
          <mxGeometry relative="1" as="geometry" />
        </mxCell>
        <mxCell id="YSgQy_tYBf9nfDvOi7hA-43" value="&lt;font style=&quot;font-size: 6px;&quot;&gt;Take Quiz&lt;/font&gt;" style="ellipse;whiteSpace=wrap;html=1;fontFamily=Helvetica;fontSize=11;fontColor=default;labelBackgroundColor=none;" vertex="1" parent="1">
          <mxGeometry x="210" y="200" width="50" height="30" as="geometry" />
        </mxCell>
        <mxCell id="YSgQy_tYBf9nfDvOi7hA-44" value="&lt;p style=&quot;line-height: 50%;&quot;&gt;&lt;font style=&quot;font-size: 6px;&quot;&gt;View Results&lt;/font&gt;&lt;/p&gt;" style="ellipse;fontFamily=Helvetica;fontSize=11;fontColor=default;labelBackgroundColor=none;html=1;whiteSpace=wrap;" vertex="1" parent="1">
          <mxGeometry x="350" y="200" width="50" height="30" as="geometry" />
        </mxCell>
        <mxCell id="YSgQy_tYBf9nfDvOi7hA-45" value="&lt;p style=&quot;line-height: 50%;&quot;&gt;&lt;font style=&quot;font-size: 6px;&quot;&gt;Quiz Review&lt;/font&gt;&lt;/p&gt;" style="ellipse;whiteSpace=wrap;html=1;fontFamily=Helvetica;fontSize=11;fontColor=default;labelBackgroundColor=none;" vertex="1" parent="1">
          <mxGeometry x="340" y="310" width="50" height="30" as="geometry" />
        </mxCell>
        <mxCell id="YSgQy_tYBf9nfDvOi7hA-64" style="edgeStyle=none;shape=connector;rounded=0;jumpSize=31;orthogonalLoop=1;jettySize=auto;html=1;entryX=0;entryY=0.5;entryDx=0;entryDy=0;strokeColor=default;align=center;verticalAlign=middle;fontFamily=Helvetica;fontSize=11;fontColor=default;labelBackgroundColor=default;endArrow=classic;" edge="1" parent="1" source="YSgQy_tYBf9nfDvOi7hA-47" target="YSgQy_tYBf9nfDvOi7hA-44">
          <mxGeometry relative="1" as="geometry" />
        </mxCell>
        <mxCell id="YSgQy_tYBf9nfDvOi7hA-47" value="&lt;p style=&quot;line-height: 50%;&quot;&gt;&lt;font style=&quot;font-size: 6px;&quot;&gt;Submit Quiz Practice&lt;/font&gt;&lt;/p&gt;" style="ellipse;whiteSpace=wrap;html=1;fontFamily=Helvetica;fontSize=11;fontColor=default;labelBackgroundColor=none;" vertex="1" parent="1">
          <mxGeometry x="280" y="200" width="50" height="30" as="geometry" />
        </mxCell>
        <mxCell id="YSgQy_tYBf9nfDvOi7hA-57" value="" style="edgeStyle=none;shape=connector;rounded=0;jumpSize=31;orthogonalLoop=1;jettySize=auto;html=1;strokeColor=default;align=center;verticalAlign=middle;fontFamily=Helvetica;fontSize=11;fontColor=default;labelBackgroundColor=default;endArrow=classic;" edge="1" parent="1" source="YSgQy_tYBf9nfDvOi7hA-49" target="YSgQy_tYBf9nfDvOi7hA-45">
          <mxGeometry relative="1" as="geometry" />
        </mxCell>
        <mxCell id="YSgQy_tYBf9nfDvOi7hA-49" value="&lt;p style=&quot;line-height: 50%;&quot;&gt;&lt;font style=&quot;font-size: 6px;&quot;&gt;Take Exams&lt;/font&gt;&lt;/p&gt;" style="ellipse;fontFamily=Helvetica;fontSize=11;fontColor=default;labelBackgroundColor=none;labelBorderColor=none;whiteSpace=wrap;html=1;" vertex="1" parent="1">
          <mxGeometry x="260" y="300" width="50" height="30" as="geometry" />
        </mxCell>
        <mxCell id="YSgQy_tYBf9nfDvOi7hA-50" value="&lt;p style=&quot;line-height: 50%;&quot;&gt;&lt;font style=&quot;font-size: 6px;&quot;&gt;Choose subjects,lesson&lt;/font&gt;&lt;/p&gt;" style="ellipse;whiteSpace=wrap;html=1;fontFamily=Helvetica;fontSize=11;fontColor=default;labelBackgroundColor=none;" vertex="1" parent="1">
          <mxGeometry x="170" y="265" width="50" height="30" as="geometry" />
        </mxCell>
        <mxCell id="YSgQy_tYBf9nfDvOi7hA-54" value="" style="endArrow=none;dashed=1;html=1;rounded=0;strokeColor=default;align=center;verticalAlign=middle;fontFamily=Helvetica;fontSize=11;fontColor=default;labelBackgroundColor=default;jumpSize=31;movable=1;resizable=1;rotatable=1;deletable=1;editable=1;locked=0;connectable=1;flowAnimation=0;shadow=0;" edge="1" parent="1" target="YSgQy_tYBf9nfDvOi7hA-36">
          <mxGeometry width="50" height="50" relative="1" as="geometry">
            <mxPoint x="90" y="270" as="sourcePoint" />
            <mxPoint x="140" y="310" as="targetPoint" />
          </mxGeometry>
        </mxCell>
        <mxCell id="YSgQy_tYBf9nfDvOi7hA-56" value="&lt;p style=&quot;line-height: 50%;&quot;&gt;&lt;font style=&quot;font-size: 5px;&quot;&gt;Inherit&lt;/font&gt;&lt;/p&gt;" style="edgeLabel;html=1;align=center;verticalAlign=middle;resizable=0;points=[];fontFamily=Helvetica;fontSize=11;fontColor=default;labelBackgroundColor=default;rotation=-40;" vertex="1" connectable="0" parent="YSgQy_tYBf9nfDvOi7hA-54">
          <mxGeometry y="2" relative="1" as="geometry">
            <mxPoint as="offset" />
          </mxGeometry>
        </mxCell>
        <mxCell id="YSgQy_tYBf9nfDvOi7hA-65" value="&lt;p style=&quot;line-height: 50%;&quot;&gt;&lt;font style=&quot;font-size: 6px;&quot;&gt;practice details&lt;/font&gt;&lt;/p&gt;" style="ellipse;fontFamily=Helvetica;fontSize=11;fontColor=default;labelBackgroundColor=none;html=1;whiteSpace=wrap;" vertex="1" parent="1">
          <mxGeometry x="310" y="255" width="50" height="30" as="geometry" />
        </mxCell>
        <mxCell id="YSgQy_tYBf9nfDvOi7hA-74" value="" style="endArrow=none;html=1;rounded=0;strokeColor=default;align=center;verticalAlign=middle;fontFamily=Helvetica;fontSize=11;fontColor=default;labelBackgroundColor=default;jumpSize=31;exitX=0.5;exitY=0;exitDx=0;exitDy=0;entryX=0;entryY=1;entryDx=0;entryDy=0;endFill=0;dashed=1;" edge="1" parent="1" source="YSgQy_tYBf9nfDvOi7hA-50" target="YSgQy_tYBf9nfDvOi7hA-43">
          <mxGeometry relative="1" as="geometry">
            <mxPoint x="270" y="300" as="sourcePoint" />
            <mxPoint x="370" y="300" as="targetPoint" />
          </mxGeometry>
        </mxCell>
        <mxCell id="YSgQy_tYBf9nfDvOi7hA-75" value="&lt;font style=&quot;font-size: 6px;&quot;&gt;Extend&lt;/font&gt;" style="edgeLabel;resizable=0;html=1;;align=center;verticalAlign=middle;fontFamily=Helvetica;fontSize=11;fontColor=default;labelBackgroundColor=default;" connectable="0" vertex="1" parent="YSgQy_tYBf9nfDvOi7hA-74">
          <mxGeometry relative="1" as="geometry" />
        </mxCell>
        <mxCell id="YSgQy_tYBf9nfDvOi7hA-77" value="" style="endArrow=none;html=1;rounded=0;strokeColor=default;align=center;verticalAlign=middle;fontFamily=Helvetica;fontSize=11;fontColor=default;labelBackgroundColor=default;jumpSize=31;exitX=1;exitY=1;exitDx=0;exitDy=0;entryX=0;entryY=0.5;entryDx=0;entryDy=0;endFill=0;dashed=1;" edge="1" parent="1" source="YSgQy_tYBf9nfDvOi7hA-50" target="YSgQy_tYBf9nfDvOi7hA-49">
          <mxGeometry relative="1" as="geometry">
            <mxPoint x="205" y="275" as="sourcePoint" />
            <mxPoint x="227" y="236" as="targetPoint" />
          </mxGeometry>
        </mxCell>
        <mxCell id="YSgQy_tYBf9nfDvOi7hA-78" value="&lt;font style=&quot;font-size: 6px;&quot;&gt;Extend&lt;/font&gt;" style="edgeLabel;resizable=0;html=1;;align=center;verticalAlign=middle;fontFamily=Helvetica;fontSize=11;fontColor=default;labelBackgroundColor=default;" connectable="0" vertex="1" parent="YSgQy_tYBf9nfDvOi7hA-77">
          <mxGeometry relative="1" as="geometry" />
        </mxCell>
        <mxCell id="YSgQy_tYBf9nfDvOi7hA-79" value="" style="endArrow=none;html=1;rounded=0;strokeColor=default;align=center;verticalAlign=middle;fontFamily=Helvetica;fontSize=11;fontColor=default;labelBackgroundColor=default;jumpSize=31;exitX=1;exitY=1;exitDx=0;exitDy=0;entryX=0.5;entryY=0;entryDx=0;entryDy=0;endFill=0;dashed=1;" edge="1" parent="1" source="YSgQy_tYBf9nfDvOi7hA-65" target="YSgQy_tYBf9nfDvOi7hA-45">
          <mxGeometry relative="1" as="geometry">
            <mxPoint x="215" y="285" as="sourcePoint" />
            <mxPoint x="237" y="246" as="targetPoint" />
          </mxGeometry>
        </mxCell>
        <mxCell id="YSgQy_tYBf9nfDvOi7hA-80" value="&lt;font style=&quot;font-size: 6px;&quot;&gt;Extend&lt;/font&gt;" style="edgeLabel;resizable=0;html=1;;align=center;verticalAlign=middle;fontFamily=Helvetica;fontSize=11;fontColor=default;labelBackgroundColor=default;" connectable="0" vertex="1" parent="YSgQy_tYBf9nfDvOi7hA-79">
          <mxGeometry relative="1" as="geometry" />
        </mxCell>
        <mxCell id="YSgQy_tYBf9nfDvOi7hA-81" value="" style="endArrow=none;html=1;rounded=0;strokeColor=default;align=center;verticalAlign=middle;fontFamily=Helvetica;fontSize=11;fontColor=default;labelBackgroundColor=default;jumpSize=31;exitX=1;exitY=0;exitDx=0;exitDy=0;entryX=0.5;entryY=1;entryDx=0;entryDy=0;endFill=0;dashed=1;" edge="1" parent="1" source="YSgQy_tYBf9nfDvOi7hA-65" target="YSgQy_tYBf9nfDvOi7hA-44">
          <mxGeometry relative="1" as="geometry">
            <mxPoint x="225" y="295" as="sourcePoint" />
            <mxPoint x="247" y="256" as="targetPoint" />
          </mxGeometry>
        </mxCell>
        <mxCell id="YSgQy_tYBf9nfDvOi7hA-82" value="&lt;font style=&quot;font-size: 6px;&quot;&gt;Extend&lt;/font&gt;" style="edgeLabel;resizable=0;html=1;;align=center;verticalAlign=middle;fontFamily=Helvetica;fontSize=11;fontColor=default;labelBackgroundColor=default;" connectable="0" vertex="1" parent="YSgQy_tYBf9nfDvOi7hA-81">
          <mxGeometry relative="1" as="geometry" />
        </mxCell>
        <mxCell id="YSgQy_tYBf9nfDvOi7hA-83" value="" style="rounded=0;whiteSpace=wrap;html=1;fontFamily=Helvetica;fontSize=11;fontColor=default;labelBackgroundColor=default;" vertex="1" parent="1">
          <mxGeometry x="120" y="440" width="280" height="160" as="geometry" />
        </mxCell>
      </root>
    </mxGraphModel>
  </diagram>
</mxfile>
